<svg width="88" height="124" viewBox="0 0 88 124" fill="none" xmlns="http://www.w3.org/2000/svg">
<path d="M37.6137 51.8342C36.8557 49.9616 37.6231 47.7734 37.0752 45.7233C35.4967 39.8122 31.403 42.2331 28.9076 40.9234L28.4646 37.3271C33.7901 33.6341 48.1265 32.2799 53.9935 35.5935L57.5462 47.3341L58.3829 47.2019L58.9257 42.7027L61.9917 40.8507C64.122 40.8126 66.0434 35.1555 65.5263 32.5225C64.645 28.0314 58.9544 29.9416 56.8998 28.7679C54.2752 25.3157 56.9512 12.7283 56.7971 8.30602C56.5287 0.573205 34.4887 -2.01196 23.4537 4.44453C18.4153 7.39155 21.2484 22.0668 21.0023 29.7046C17.8409 34.4421 11.5335 30.7008 13.1441 38.1252C14.8815 46.1382 22.1888 40.1928 23.9091 54.3505C24.0837 55.7812 24.8507 58.2248 25.1504 59.7749C25.8373 63.3378 26.7516 67.2314 28.8314 70.2592L27.0273 73.9804C13.1694 79.4108 -1.9597 79.9284 0.208691 94.918C1.2732 102.275 3.3226 111.864 9.18189 116.837C25.7338 130.887 16.889 118.04 17.9659 110.869C21.5939 86.7108 34.234 85.5966 38.3512 63.6004L38.3863 60.9229L48.7309 59.8754L49.1011 58.7458L38.6572 55.7457" fill="white"/>
<path d="M58.5958 122.852C60.3935 124.09 74.7295 123.099 77.0105 122.293C81.2364 120.796 85.354 117.093 86.4566 112.431C88.506 103.77 87.9303 103.892 87.9119 95.0633C87.9046 91.727 88.0566 88.6008 87.5725 85.5965C86.0864 76.3636 78.3596 78.9454 70.6226 76.1973C68.2175 75.3418 66.927 74.8285 64.8776 73.5026C63.0948 72.3516 60.4731 69.7386 59.308 67.8477C60.2347 79.5707 53.0866 115.029 58.5958 122.852Z" fill="white"/>
</svg>
